<mxfile host="app.diagrams.net" modified="2024-03-25T18:39:22.889Z" agent="Mozilla/5.0 (Windows NT 10.0; Win64; x64) AppleWebKit/537.36 (KHTML, like Gecko) Chrome/123.0.0.0 Safari/537.36" etag="g9LDxhCnkqZhnfYB72ka" version="24.1.0" type="device" pages="3">
  <diagram id="C5RBs43oDa-KdzZeNtuy" name="three_if">
    <mxGraphModel dx="794" dy="454" grid="1" gridSize="10" guides="1" tooltips="1" connect="1" arrows="1" fold="1" page="1" pageScale="1" pageWidth="827" pageHeight="1169" math="0" shadow="0">
      <root>
        <mxCell id="WIyWlLk6GJQsqaUBKTNV-0" />
        <mxCell id="WIyWlLk6GJQsqaUBKTNV-1" parent="WIyWlLk6GJQsqaUBKTNV-0" />
        <mxCell id="_WkHc09uZ7MI6z5SkBzZ-3" style="edgeStyle=none;rounded=0;orthogonalLoop=1;jettySize=auto;html=1;exitX=0.5;exitY=1;exitDx=0;exitDy=0;entryX=0.5;entryY=0;entryDx=0;entryDy=0;" edge="1" parent="WIyWlLk6GJQsqaUBKTNV-1" source="WIyWlLk6GJQsqaUBKTNV-3" target="WIyWlLk6GJQsqaUBKTNV-6">
          <mxGeometry relative="1" as="geometry" />
        </mxCell>
        <mxCell id="WIyWlLk6GJQsqaUBKTNV-3" value="start" style="rounded=1;whiteSpace=wrap;html=1;fontSize=12;glass=0;strokeWidth=1;shadow=0;" parent="WIyWlLk6GJQsqaUBKTNV-1" vertex="1">
          <mxGeometry x="190" y="80" width="60" height="40" as="geometry" />
        </mxCell>
        <mxCell id="_WkHc09uZ7MI6z5SkBzZ-1" style="edgeStyle=orthogonalEdgeStyle;rounded=0;orthogonalLoop=1;jettySize=auto;html=1;exitX=0;exitY=0.5;exitDx=0;exitDy=0;entryX=0.5;entryY=0;entryDx=0;entryDy=0;" edge="1" parent="WIyWlLk6GJQsqaUBKTNV-1" source="WIyWlLk6GJQsqaUBKTNV-6" target="_WkHc09uZ7MI6z5SkBzZ-0">
          <mxGeometry relative="1" as="geometry" />
        </mxCell>
        <mxCell id="_WkHc09uZ7MI6z5SkBzZ-8" style="edgeStyle=orthogonalEdgeStyle;rounded=0;orthogonalLoop=1;jettySize=auto;html=1;exitX=1;exitY=0.5;exitDx=0;exitDy=0;entryX=1;entryY=0.5;entryDx=0;entryDy=0;" edge="1" parent="WIyWlLk6GJQsqaUBKTNV-1" source="WIyWlLk6GJQsqaUBKTNV-6" target="_WkHc09uZ7MI6z5SkBzZ-4">
          <mxGeometry relative="1" as="geometry" />
        </mxCell>
        <mxCell id="_WkHc09uZ7MI6z5SkBzZ-9" value="false" style="edgeLabel;html=1;align=center;verticalAlign=middle;resizable=0;points=[];" vertex="1" connectable="0" parent="_WkHc09uZ7MI6z5SkBzZ-8">
          <mxGeometry x="-0.4707" y="2" relative="1" as="geometry">
            <mxPoint x="13" y="21" as="offset" />
          </mxGeometry>
        </mxCell>
        <mxCell id="WIyWlLk6GJQsqaUBKTNV-6" value="x&amp;lt;y" style="rhombus;whiteSpace=wrap;html=1;shadow=0;fontFamily=Helvetica;fontSize=12;align=center;strokeWidth=1;spacing=6;spacingTop=-4;" parent="WIyWlLk6GJQsqaUBKTNV-1" vertex="1">
          <mxGeometry x="185" y="160" width="70" height="60" as="geometry" />
        </mxCell>
        <mxCell id="_WkHc09uZ7MI6z5SkBzZ-5" style="edgeStyle=none;rounded=0;orthogonalLoop=1;jettySize=auto;html=1;exitX=0.5;exitY=1;exitDx=0;exitDy=0;entryX=0;entryY=0;entryDx=0;entryDy=0;" edge="1" parent="WIyWlLk6GJQsqaUBKTNV-1" source="_WkHc09uZ7MI6z5SkBzZ-0" target="_WkHc09uZ7MI6z5SkBzZ-4">
          <mxGeometry relative="1" as="geometry" />
        </mxCell>
        <mxCell id="_WkHc09uZ7MI6z5SkBzZ-0" value="x is less than y" style="rounded=1;whiteSpace=wrap;html=1;fontSize=12;glass=0;strokeWidth=1;shadow=0;" vertex="1" parent="WIyWlLk6GJQsqaUBKTNV-1">
          <mxGeometry x="115" y="220" width="90" height="30" as="geometry" />
        </mxCell>
        <mxCell id="_WkHc09uZ7MI6z5SkBzZ-12" style="edgeStyle=orthogonalEdgeStyle;rounded=0;orthogonalLoop=1;jettySize=auto;html=1;exitX=0;exitY=0.5;exitDx=0;exitDy=0;entryX=0.5;entryY=0;entryDx=0;entryDy=0;" edge="1" parent="WIyWlLk6GJQsqaUBKTNV-1" source="_WkHc09uZ7MI6z5SkBzZ-4" target="_WkHc09uZ7MI6z5SkBzZ-10">
          <mxGeometry relative="1" as="geometry" />
        </mxCell>
        <mxCell id="_WkHc09uZ7MI6z5SkBzZ-13" value="true" style="edgeLabel;html=1;align=center;verticalAlign=middle;resizable=0;points=[];" vertex="1" connectable="0" parent="_WkHc09uZ7MI6z5SkBzZ-12">
          <mxGeometry x="-0.2622" y="-2" relative="1" as="geometry">
            <mxPoint x="-13" y="-3" as="offset" />
          </mxGeometry>
        </mxCell>
        <mxCell id="_WkHc09uZ7MI6z5SkBzZ-4" value="x&amp;gt;y" style="rhombus;whiteSpace=wrap;html=1;shadow=0;fontFamily=Helvetica;fontSize=12;align=center;strokeWidth=1;spacing=6;spacingTop=-4;" vertex="1" parent="WIyWlLk6GJQsqaUBKTNV-1">
          <mxGeometry x="180" y="270" width="70" height="60" as="geometry" />
        </mxCell>
        <mxCell id="_WkHc09uZ7MI6z5SkBzZ-6" style="edgeStyle=none;rounded=0;orthogonalLoop=1;jettySize=auto;html=1;exitX=1;exitY=1;exitDx=0;exitDy=0;" edge="1" parent="WIyWlLk6GJQsqaUBKTNV-1" source="_WkHc09uZ7MI6z5SkBzZ-4" target="_WkHc09uZ7MI6z5SkBzZ-4">
          <mxGeometry relative="1" as="geometry" />
        </mxCell>
        <mxCell id="_WkHc09uZ7MI6z5SkBzZ-7" value="true" style="text;html=1;align=center;verticalAlign=middle;resizable=0;points=[];autosize=1;strokeColor=none;fillColor=none;" vertex="1" parent="WIyWlLk6GJQsqaUBKTNV-1">
          <mxGeometry x="140" y="168" width="40" height="30" as="geometry" />
        </mxCell>
        <mxCell id="_WkHc09uZ7MI6z5SkBzZ-15" style="edgeStyle=orthogonalEdgeStyle;rounded=0;orthogonalLoop=1;jettySize=auto;html=1;exitX=0.5;exitY=1;exitDx=0;exitDy=0;entryX=0;entryY=0;entryDx=0;entryDy=0;" edge="1" parent="WIyWlLk6GJQsqaUBKTNV-1" source="_WkHc09uZ7MI6z5SkBzZ-10" target="_WkHc09uZ7MI6z5SkBzZ-14">
          <mxGeometry relative="1" as="geometry" />
        </mxCell>
        <mxCell id="_WkHc09uZ7MI6z5SkBzZ-10" value="x is greater than y" style="rounded=1;whiteSpace=wrap;html=1;fontSize=12;glass=0;strokeWidth=1;shadow=0;" vertex="1" parent="WIyWlLk6GJQsqaUBKTNV-1">
          <mxGeometry x="100" y="350" width="100" height="30" as="geometry" />
        </mxCell>
        <mxCell id="_WkHc09uZ7MI6z5SkBzZ-20" style="edgeStyle=orthogonalEdgeStyle;rounded=0;orthogonalLoop=1;jettySize=auto;html=1;exitX=0.5;exitY=1;exitDx=0;exitDy=0;entryX=0;entryY=0.5;entryDx=0;entryDy=0;" edge="1" parent="WIyWlLk6GJQsqaUBKTNV-1" source="_WkHc09uZ7MI6z5SkBzZ-11" target="_WkHc09uZ7MI6z5SkBzZ-19">
          <mxGeometry relative="1" as="geometry" />
        </mxCell>
        <mxCell id="_WkHc09uZ7MI6z5SkBzZ-11" value="x is equal to y" style="rounded=1;whiteSpace=wrap;html=1;fontSize=12;glass=0;strokeWidth=1;shadow=0;" vertex="1" parent="WIyWlLk6GJQsqaUBKTNV-1">
          <mxGeometry x="110" y="490" width="90" height="30" as="geometry" />
        </mxCell>
        <mxCell id="_WkHc09uZ7MI6z5SkBzZ-18" style="edgeStyle=orthogonalEdgeStyle;rounded=0;orthogonalLoop=1;jettySize=auto;html=1;exitX=0;exitY=0.5;exitDx=0;exitDy=0;" edge="1" parent="WIyWlLk6GJQsqaUBKTNV-1" source="_WkHc09uZ7MI6z5SkBzZ-14" target="_WkHc09uZ7MI6z5SkBzZ-11">
          <mxGeometry relative="1" as="geometry" />
        </mxCell>
        <mxCell id="_WkHc09uZ7MI6z5SkBzZ-23" value="true" style="edgeLabel;html=1;align=center;verticalAlign=middle;resizable=0;points=[];" vertex="1" connectable="0" parent="_WkHc09uZ7MI6z5SkBzZ-18">
          <mxGeometry x="-0.1843" y="-1" relative="1" as="geometry">
            <mxPoint x="-14" as="offset" />
          </mxGeometry>
        </mxCell>
        <mxCell id="_WkHc09uZ7MI6z5SkBzZ-21" style="edgeStyle=orthogonalEdgeStyle;rounded=0;orthogonalLoop=1;jettySize=auto;html=1;exitX=1;exitY=0.5;exitDx=0;exitDy=0;entryX=1;entryY=0.5;entryDx=0;entryDy=0;" edge="1" parent="WIyWlLk6GJQsqaUBKTNV-1" source="_WkHc09uZ7MI6z5SkBzZ-14" target="_WkHc09uZ7MI6z5SkBzZ-19">
          <mxGeometry relative="1" as="geometry" />
        </mxCell>
        <mxCell id="_WkHc09uZ7MI6z5SkBzZ-22" value="false" style="edgeLabel;html=1;align=center;verticalAlign=middle;resizable=0;points=[];" vertex="1" connectable="0" parent="_WkHc09uZ7MI6z5SkBzZ-21">
          <mxGeometry x="-0.3398" y="-1" relative="1" as="geometry">
            <mxPoint x="21" y="12" as="offset" />
          </mxGeometry>
        </mxCell>
        <mxCell id="_WkHc09uZ7MI6z5SkBzZ-14" value="x==y" style="rhombus;whiteSpace=wrap;html=1;shadow=0;fontFamily=Helvetica;fontSize=12;align=center;strokeWidth=1;spacing=6;spacingTop=-4;" vertex="1" parent="WIyWlLk6GJQsqaUBKTNV-1">
          <mxGeometry x="180" y="400" width="70" height="60" as="geometry" />
        </mxCell>
        <mxCell id="_WkHc09uZ7MI6z5SkBzZ-16" style="edgeStyle=orthogonalEdgeStyle;rounded=0;orthogonalLoop=1;jettySize=auto;html=1;exitX=1;exitY=1;exitDx=0;exitDy=0;entryX=0.848;entryY=0.367;entryDx=0;entryDy=0;entryPerimeter=0;" edge="1" parent="WIyWlLk6GJQsqaUBKTNV-1" source="_WkHc09uZ7MI6z5SkBzZ-4" target="_WkHc09uZ7MI6z5SkBzZ-14">
          <mxGeometry relative="1" as="geometry" />
        </mxCell>
        <mxCell id="_WkHc09uZ7MI6z5SkBzZ-17" value="false" style="edgeLabel;html=1;align=center;verticalAlign=middle;resizable=0;points=[];" vertex="1" connectable="0" parent="_WkHc09uZ7MI6z5SkBzZ-16">
          <mxGeometry x="-0.1983" relative="1" as="geometry">
            <mxPoint x="23" y="-11" as="offset" />
          </mxGeometry>
        </mxCell>
        <mxCell id="_WkHc09uZ7MI6z5SkBzZ-19" value="stop" style="rounded=1;whiteSpace=wrap;html=1;fontSize=12;glass=0;strokeWidth=1;shadow=0;" vertex="1" parent="WIyWlLk6GJQsqaUBKTNV-1">
          <mxGeometry x="180" y="565" width="60" height="40" as="geometry" />
        </mxCell>
      </root>
    </mxGraphModel>
  </diagram>
  <diagram id="OdsAqOl8Hz9NLRfZu39X" name="elseif">
    <mxGraphModel dx="794" dy="454" grid="1" gridSize="10" guides="1" tooltips="1" connect="1" arrows="1" fold="1" page="1" pageScale="1" pageWidth="827" pageHeight="1169" math="0" shadow="0">
      <root>
        <mxCell id="0" />
        <mxCell id="1" parent="0" />
        <mxCell id="Ndz2woTSYPFRnCzUYA2c-3" style="edgeStyle=none;rounded=0;orthogonalLoop=1;jettySize=auto;html=1;exitX=0.5;exitY=1;exitDx=0;exitDy=0;entryX=0.5;entryY=0;entryDx=0;entryDy=0;" edge="1" parent="1" source="Ndz2woTSYPFRnCzUYA2c-1" target="Ndz2woTSYPFRnCzUYA2c-2">
          <mxGeometry relative="1" as="geometry" />
        </mxCell>
        <mxCell id="Ndz2woTSYPFRnCzUYA2c-1" value="start" style="rounded=1;whiteSpace=wrap;html=1;" vertex="1" parent="1">
          <mxGeometry x="384" y="30" width="60" height="20" as="geometry" />
        </mxCell>
        <mxCell id="Ndz2woTSYPFRnCzUYA2c-5" style="edgeStyle=orthogonalEdgeStyle;rounded=0;orthogonalLoop=1;jettySize=auto;html=1;exitX=1;exitY=0.5;exitDx=0;exitDy=0;" edge="1" parent="1" source="Ndz2woTSYPFRnCzUYA2c-2" target="Ndz2woTSYPFRnCzUYA2c-4">
          <mxGeometry relative="1" as="geometry" />
        </mxCell>
        <mxCell id="Ndz2woTSYPFRnCzUYA2c-6" value="false" style="edgeLabel;html=1;align=center;verticalAlign=middle;resizable=0;points=[];" vertex="1" connectable="0" parent="Ndz2woTSYPFRnCzUYA2c-5">
          <mxGeometry x="-0.164" y="1" relative="1" as="geometry">
            <mxPoint x="19" y="3" as="offset" />
          </mxGeometry>
        </mxCell>
        <mxCell id="Ndz2woTSYPFRnCzUYA2c-15" style="edgeStyle=orthogonalEdgeStyle;rounded=0;orthogonalLoop=1;jettySize=auto;html=1;exitX=0;exitY=0.5;exitDx=0;exitDy=0;" edge="1" parent="1" source="Ndz2woTSYPFRnCzUYA2c-2" target="Ndz2woTSYPFRnCzUYA2c-13">
          <mxGeometry relative="1" as="geometry" />
        </mxCell>
        <mxCell id="Ndz2woTSYPFRnCzUYA2c-16" value="true" style="edgeLabel;html=1;align=center;verticalAlign=middle;resizable=0;points=[];" vertex="1" connectable="0" parent="Ndz2woTSYPFRnCzUYA2c-15">
          <mxGeometry x="-0.1751" y="-1" relative="1" as="geometry">
            <mxPoint x="3" y="-9" as="offset" />
          </mxGeometry>
        </mxCell>
        <mxCell id="Ndz2woTSYPFRnCzUYA2c-2" value="x&amp;lt;y" style="rhombus;whiteSpace=wrap;html=1;" vertex="1" parent="1">
          <mxGeometry x="384" y="90" width="60" height="60" as="geometry" />
        </mxCell>
        <mxCell id="Ndz2woTSYPFRnCzUYA2c-8" style="edgeStyle=orthogonalEdgeStyle;rounded=0;orthogonalLoop=1;jettySize=auto;html=1;exitX=1;exitY=0.5;exitDx=0;exitDy=0;entryX=0.5;entryY=0;entryDx=0;entryDy=0;" edge="1" parent="1" source="Ndz2woTSYPFRnCzUYA2c-4" target="Ndz2woTSYPFRnCzUYA2c-7">
          <mxGeometry relative="1" as="geometry" />
        </mxCell>
        <mxCell id="Ndz2woTSYPFRnCzUYA2c-9" value="false" style="edgeLabel;html=1;align=center;verticalAlign=middle;resizable=0;points=[];" vertex="1" connectable="0" parent="Ndz2woTSYPFRnCzUYA2c-8">
          <mxGeometry x="-0.0519" y="-2" relative="1" as="geometry">
            <mxPoint x="22" as="offset" />
          </mxGeometry>
        </mxCell>
        <mxCell id="Ndz2woTSYPFRnCzUYA2c-17" style="edgeStyle=orthogonalEdgeStyle;rounded=0;orthogonalLoop=1;jettySize=auto;html=1;exitX=0;exitY=0.5;exitDx=0;exitDy=0;" edge="1" parent="1" source="Ndz2woTSYPFRnCzUYA2c-4" target="Ndz2woTSYPFRnCzUYA2c-14">
          <mxGeometry relative="1" as="geometry" />
        </mxCell>
        <mxCell id="Ndz2woTSYPFRnCzUYA2c-18" value="true" style="edgeLabel;html=1;align=center;verticalAlign=middle;resizable=0;points=[];" vertex="1" connectable="0" parent="Ndz2woTSYPFRnCzUYA2c-17">
          <mxGeometry x="-0.3432" y="1" relative="1" as="geometry">
            <mxPoint y="-11" as="offset" />
          </mxGeometry>
        </mxCell>
        <mxCell id="Ndz2woTSYPFRnCzUYA2c-4" value="x&amp;gt;y" style="rhombus;whiteSpace=wrap;html=1;" vertex="1" parent="1">
          <mxGeometry x="470" y="160" width="60" height="60" as="geometry" />
        </mxCell>
        <mxCell id="Ndz2woTSYPFRnCzUYA2c-11" style="edgeStyle=orthogonalEdgeStyle;rounded=0;orthogonalLoop=1;jettySize=auto;html=1;exitX=1;exitY=0.5;exitDx=0;exitDy=0;entryX=0.5;entryY=0;entryDx=0;entryDy=0;" edge="1" parent="1" source="Ndz2woTSYPFRnCzUYA2c-7" target="Ndz2woTSYPFRnCzUYA2c-10">
          <mxGeometry relative="1" as="geometry" />
        </mxCell>
        <mxCell id="Ndz2woTSYPFRnCzUYA2c-12" value="true" style="edgeLabel;html=1;align=center;verticalAlign=middle;resizable=0;points=[];" vertex="1" connectable="0" parent="Ndz2woTSYPFRnCzUYA2c-11">
          <mxGeometry x="-0.0272" relative="1" as="geometry">
            <mxPoint x="15" y="9" as="offset" />
          </mxGeometry>
        </mxCell>
        <mxCell id="Ndz2woTSYPFRnCzUYA2c-7" value="x==y" style="rhombus;whiteSpace=wrap;html=1;" vertex="1" parent="1">
          <mxGeometry x="540" y="240" width="60" height="60" as="geometry" />
        </mxCell>
        <mxCell id="Ndz2woTSYPFRnCzUYA2c-20" style="edgeStyle=orthogonalEdgeStyle;rounded=0;orthogonalLoop=1;jettySize=auto;html=1;exitX=0.5;exitY=1;exitDx=0;exitDy=0;entryX=1;entryY=0.5;entryDx=0;entryDy=0;" edge="1" parent="1" source="Ndz2woTSYPFRnCzUYA2c-10" target="Ndz2woTSYPFRnCzUYA2c-19">
          <mxGeometry relative="1" as="geometry" />
        </mxCell>
        <mxCell id="Ndz2woTSYPFRnCzUYA2c-10" value="x is equal to y" style="rounded=0;whiteSpace=wrap;html=1;" vertex="1" parent="1">
          <mxGeometry x="590" y="320" width="110" height="30" as="geometry" />
        </mxCell>
        <mxCell id="Ndz2woTSYPFRnCzUYA2c-22" style="edgeStyle=orthogonalEdgeStyle;rounded=0;orthogonalLoop=1;jettySize=auto;html=1;exitX=0.5;exitY=1;exitDx=0;exitDy=0;entryX=0;entryY=1;entryDx=0;entryDy=0;" edge="1" parent="1" source="Ndz2woTSYPFRnCzUYA2c-13" target="Ndz2woTSYPFRnCzUYA2c-19">
          <mxGeometry relative="1" as="geometry" />
        </mxCell>
        <mxCell id="Ndz2woTSYPFRnCzUYA2c-13" value="x is less than y" style="rounded=0;whiteSpace=wrap;html=1;" vertex="1" parent="1">
          <mxGeometry x="260" y="190" width="110" height="30" as="geometry" />
        </mxCell>
        <mxCell id="Ndz2woTSYPFRnCzUYA2c-21" style="edgeStyle=orthogonalEdgeStyle;rounded=0;orthogonalLoop=1;jettySize=auto;html=1;exitX=0.5;exitY=1;exitDx=0;exitDy=0;entryX=0.5;entryY=0;entryDx=0;entryDy=0;" edge="1" parent="1" source="Ndz2woTSYPFRnCzUYA2c-14" target="Ndz2woTSYPFRnCzUYA2c-19">
          <mxGeometry relative="1" as="geometry" />
        </mxCell>
        <mxCell id="Ndz2woTSYPFRnCzUYA2c-14" value="x is greater than y" style="rounded=0;whiteSpace=wrap;html=1;" vertex="1" parent="1">
          <mxGeometry x="360" y="270" width="110" height="30" as="geometry" />
        </mxCell>
        <mxCell id="Ndz2woTSYPFRnCzUYA2c-19" value="stop" style="rounded=1;whiteSpace=wrap;html=1;" vertex="1" parent="1">
          <mxGeometry x="470" y="410" width="80" height="20" as="geometry" />
        </mxCell>
        <mxCell id="Ndz2woTSYPFRnCzUYA2c-23" style="edgeStyle=orthogonalEdgeStyle;rounded=0;orthogonalLoop=1;jettySize=auto;html=1;exitX=0;exitY=1;exitDx=0;exitDy=0;entryX=0.875;entryY=-0.133;entryDx=0;entryDy=0;entryPerimeter=0;" edge="1" parent="1" source="Ndz2woTSYPFRnCzUYA2c-7" target="Ndz2woTSYPFRnCzUYA2c-19">
          <mxGeometry relative="1" as="geometry" />
        </mxCell>
        <mxCell id="Ndz2woTSYPFRnCzUYA2c-24" value="false" style="edgeLabel;html=1;align=center;verticalAlign=middle;resizable=0;points=[];" vertex="1" connectable="0" parent="Ndz2woTSYPFRnCzUYA2c-23">
          <mxGeometry x="-0.3204" relative="1" as="geometry">
            <mxPoint x="-25" y="3" as="offset" />
          </mxGeometry>
        </mxCell>
      </root>
    </mxGraphModel>
  </diagram>
  <diagram id="XgnOC6Gnu4nZwNhQwf6I" name="if_elseif_else">
    <mxGraphModel dx="794" dy="454" grid="1" gridSize="10" guides="1" tooltips="1" connect="1" arrows="1" fold="1" page="1" pageScale="1" pageWidth="827" pageHeight="1169" math="0" shadow="0">
      <root>
        <mxCell id="0" />
        <mxCell id="1" parent="0" />
        <mxCell id="g_XxwaYyyA2vblgzQ_3L-3" style="edgeStyle=none;rounded=0;orthogonalLoop=1;jettySize=auto;html=1;exitX=0.5;exitY=1;exitDx=0;exitDy=0;entryX=0.5;entryY=0;entryDx=0;entryDy=0;" edge="1" parent="1" source="g_XxwaYyyA2vblgzQ_3L-1" target="g_XxwaYyyA2vblgzQ_3L-2">
          <mxGeometry relative="1" as="geometry" />
        </mxCell>
        <mxCell id="g_XxwaYyyA2vblgzQ_3L-1" value="start" style="rounded=1;whiteSpace=wrap;html=1;" vertex="1" parent="1">
          <mxGeometry x="340" y="20" width="70" height="20" as="geometry" />
        </mxCell>
        <mxCell id="g_XxwaYyyA2vblgzQ_3L-5" style="edgeStyle=orthogonalEdgeStyle;rounded=0;orthogonalLoop=1;jettySize=auto;html=1;exitX=1;exitY=0.5;exitDx=0;exitDy=0;entryX=0.5;entryY=0;entryDx=0;entryDy=0;" edge="1" parent="1" source="g_XxwaYyyA2vblgzQ_3L-2" target="g_XxwaYyyA2vblgzQ_3L-4">
          <mxGeometry relative="1" as="geometry" />
        </mxCell>
        <mxCell id="g_XxwaYyyA2vblgzQ_3L-6" value="false" style="edgeLabel;html=1;align=center;verticalAlign=middle;resizable=0;points=[];" vertex="1" connectable="0" parent="g_XxwaYyyA2vblgzQ_3L-5">
          <mxGeometry x="-0.3123" y="3" relative="1" as="geometry">
            <mxPoint x="12" y="-7" as="offset" />
          </mxGeometry>
        </mxCell>
        <mxCell id="g_XxwaYyyA2vblgzQ_3L-2" value="x&amp;lt;y" style="rhombus;whiteSpace=wrap;html=1;" vertex="1" parent="1">
          <mxGeometry x="345" y="90" width="60" height="60" as="geometry" />
        </mxCell>
        <mxCell id="g_XxwaYyyA2vblgzQ_3L-8" style="edgeStyle=orthogonalEdgeStyle;rounded=0;orthogonalLoop=1;jettySize=auto;html=1;exitX=1;exitY=0.5;exitDx=0;exitDy=0;entryX=0.5;entryY=0;entryDx=0;entryDy=0;" edge="1" parent="1" source="g_XxwaYyyA2vblgzQ_3L-4" target="g_XxwaYyyA2vblgzQ_3L-7">
          <mxGeometry relative="1" as="geometry" />
        </mxCell>
        <mxCell id="g_XxwaYyyA2vblgzQ_3L-9" value="false" style="edgeLabel;html=1;align=center;verticalAlign=middle;resizable=0;points=[];" vertex="1" connectable="0" parent="g_XxwaYyyA2vblgzQ_3L-8">
          <mxGeometry x="-0.1384" y="2" relative="1" as="geometry">
            <mxPoint x="18" as="offset" />
          </mxGeometry>
        </mxCell>
        <mxCell id="g_XxwaYyyA2vblgzQ_3L-12" style="edgeStyle=orthogonalEdgeStyle;rounded=0;orthogonalLoop=1;jettySize=auto;html=1;exitX=0;exitY=0.5;exitDx=0;exitDy=0;entryX=0.5;entryY=0;entryDx=0;entryDy=0;" edge="1" parent="1" source="g_XxwaYyyA2vblgzQ_3L-4" target="g_XxwaYyyA2vblgzQ_3L-10">
          <mxGeometry relative="1" as="geometry" />
        </mxCell>
        <mxCell id="g_XxwaYyyA2vblgzQ_3L-15" value="true" style="edgeLabel;html=1;align=center;verticalAlign=middle;resizable=0;points=[];" vertex="1" connectable="0" parent="g_XxwaYyyA2vblgzQ_3L-12">
          <mxGeometry x="0.0292" y="-4" relative="1" as="geometry">
            <mxPoint x="-16" y="-15" as="offset" />
          </mxGeometry>
        </mxCell>
        <mxCell id="g_XxwaYyyA2vblgzQ_3L-4" value="x&amp;gt;y" style="rhombus;whiteSpace=wrap;html=1;" vertex="1" parent="1">
          <mxGeometry x="414" y="150" width="60" height="60" as="geometry" />
        </mxCell>
        <mxCell id="g_XxwaYyyA2vblgzQ_3L-17" style="edgeStyle=orthogonalEdgeStyle;rounded=0;orthogonalLoop=1;jettySize=auto;html=1;exitX=0.5;exitY=1;exitDx=0;exitDy=0;entryX=1;entryY=0.5;entryDx=0;entryDy=0;" edge="1" parent="1" source="g_XxwaYyyA2vblgzQ_3L-7" target="g_XxwaYyyA2vblgzQ_3L-16">
          <mxGeometry relative="1" as="geometry" />
        </mxCell>
        <mxCell id="g_XxwaYyyA2vblgzQ_3L-7" value="x is equal to y" style="rounded=0;whiteSpace=wrap;html=1;" vertex="1" parent="1">
          <mxGeometry x="460" y="250" width="100" height="20" as="geometry" />
        </mxCell>
        <mxCell id="g_XxwaYyyA2vblgzQ_3L-18" style="edgeStyle=orthogonalEdgeStyle;rounded=0;orthogonalLoop=1;jettySize=auto;html=1;exitX=0.5;exitY=1;exitDx=0;exitDy=0;entryX=0;entryY=0.75;entryDx=0;entryDy=0;" edge="1" parent="1" source="g_XxwaYyyA2vblgzQ_3L-10" target="g_XxwaYyyA2vblgzQ_3L-16">
          <mxGeometry relative="1" as="geometry" />
        </mxCell>
        <mxCell id="g_XxwaYyyA2vblgzQ_3L-10" value="x is not equal to y" style="rounded=0;whiteSpace=wrap;html=1;" vertex="1" parent="1">
          <mxGeometry x="320" y="250" width="100" height="20" as="geometry" />
        </mxCell>
        <mxCell id="g_XxwaYyyA2vblgzQ_3L-13" style="edgeStyle=orthogonalEdgeStyle;rounded=0;orthogonalLoop=1;jettySize=auto;html=1;exitX=0;exitY=0.5;exitDx=0;exitDy=0;entryX=0.187;entryY=-0.133;entryDx=0;entryDy=0;entryPerimeter=0;" edge="1" parent="1" source="g_XxwaYyyA2vblgzQ_3L-2" target="g_XxwaYyyA2vblgzQ_3L-10">
          <mxGeometry relative="1" as="geometry" />
        </mxCell>
        <mxCell id="g_XxwaYyyA2vblgzQ_3L-14" value="true" style="edgeLabel;html=1;align=center;verticalAlign=middle;resizable=0;points=[];" vertex="1" connectable="0" parent="g_XxwaYyyA2vblgzQ_3L-13">
          <mxGeometry x="-0.2714" y="-2" relative="1" as="geometry">
            <mxPoint x="-23" as="offset" />
          </mxGeometry>
        </mxCell>
        <mxCell id="g_XxwaYyyA2vblgzQ_3L-16" value="stop" style="rounded=1;whiteSpace=wrap;html=1;" vertex="1" parent="1">
          <mxGeometry x="390" y="310" width="70" height="20" as="geometry" />
        </mxCell>
      </root>
    </mxGraphModel>
  </diagram>
</mxfile>
